HIERARCHY
ROOT Hips
{
  OFFSET 73.9991 93.5207 56.7068
  CHANNELS 6 Xposition Yposition Zposition Zrotation Xrotation Yrotation
  JOINT spine
  {
    OFFSET 0 6.84637 0.3937
    CHANNELS 3 Zrotation Xrotation Yrotation
    JOINT spine1
    {
      OFFSET 0 9.49621 0
      CHANNELS 3 Zrotation Xrotation Yrotation
      JOINT spine2
      {
        OFFSET 0 9.09909 0
        CHANNELS 3 Zrotation Xrotation Yrotation
        JOINT Neck
        {
          OFFSET 0 23.3612 1.11378
          CHANNELS 3 Zrotation Xrotation Yrotation
          JOINT Head
          {
            OFFSET 0 7.05802 0
            CHANNELS 3 Zrotation Xrotation Yrotation
            End Site
            {
              OFFSET 0 17.0844 -5.63419
            }
          }
        }
        JOINT RightShoulder
        {
          OFFSET -3.83136 9.82631 -0.533491
          CHANNELS 3 Zrotation Xrotation Yrotation
          JOINT RightArm
          {
            OFFSET 0 12.8881 0
            CHANNELS 3 Zrotation Xrotation Yrotation
            JOINT RightArmRoll
            {
              OFFSET 0 6.50617 0
              CHANNELS 3 Zrotation Xrotation Yrotation
              JOINT RightForeArm
              {
                OFFSET 0 18.9501 0
                CHANNELS 3 Zrotation Xrotation Yrotation
                JOINT RightForeArmRoll
                {
                  OFFSET 0 7.30092 0
                  CHANNELS 3 Zrotation Xrotation Yrotation
                  JOINT RightHand
                  {
                    OFFSET 0 14.6514 0
                    CHANNELS 3 Zrotation Xrotation Yrotation
                    End Site
                    {
                      OFFSET 0 0 0
                    }
                  }
                }
              }
            }
          }
        }
        JOINT LeftShoulder
        {
          OFFSET 3.83136 9.82631 -0.533491
          CHANNELS 3 Zrotation Xrotation Yrotation
          JOINT LeftArm
          {
            OFFSET 0 12.8881 0
            CHANNELS 3 Zrotation Xrotation Yrotation
            JOINT LeftArmRoll
            {
              OFFSET 0 6.50617 0
              CHANNELS 3 Zrotation Xrotation Yrotation
              JOINT LeftForeArm
              {
                OFFSET 0 18.9501 0
                CHANNELS 3 Zrotation Xrotation Yrotation
                JOINT LeftForeArmRoll
                {
                  OFFSET 0 7.30093 0
                  CHANNELS 3 Zrotation Xrotation Yrotation
                  JOINT LeftHand
                  {
                    OFFSET 0 14.6514 0
                    CHANNELS 3 Zrotation Xrotation Yrotation
                    End Site
                    {
                      OFFSET 0 0 0
                    }
                  }
                }
              }
            }
          }
        }
      }
    }
  }
  JOINT RightUpLeg
  {
    OFFSET -6.06837 -1.11278 -0.933477
    CHANNELS 3 Zrotation Xrotation Yrotation
    JOINT RightUpLegRoll
    {
      OFFSET 0 17.1796 0
      CHANNELS 3 Zrotation Xrotation Yrotation
      JOINT RightLeg
      {
        OFFSET 0 -21.2743 0
        CHANNELS 3 Zrotation Xrotation Yrotation
        JOINT RightLegRoll
        {
          OFFSET 0 21.3439 0
          CHANNELS 3 Zrotation Xrotation Yrotation
          JOINT RightFoot
          {
            OFFSET 0 17.7652 0
            CHANNELS 3 Zrotation Xrotation Yrotation
            JOINT RightToeBase
            {
              OFFSET 0 14.8508 0
              CHANNELS 3 Zrotation Xrotation Yrotation
              End Site
              {
                OFFSET 0.0062947 7.19214 -0.829005
              }
            }
          }
        }
      }
    }
  }
  JOINT LeftUpLeg
  {
    OFFSET 6.06837 -1.11278 -0.933477
    CHANNELS 3 Zrotation Xrotation Yrotation
    JOINT LeftUpLegRoll
    {
      OFFSET 0 17.1797 0
      CHANNELS 3 Zrotation Xrotation Yrotation
      JOINT LeftLeg
      {
        OFFSET 0 21.2742 0
        CHANNELS 3 Zrotation Xrotation Yrotation
        JOINT LeftLegRoll
        {
          OFFSET 0 21.5412 0
          CHANNELS 3 Zrotation Xrotation Yrotation
          JOINT LeftFoot
          {
            OFFSET 0 17.5679 0
            CHANNELS 3 Zrotation Xrotation Yrotation
            JOINT LeftToeBase
            {
              OFFSET 0 14.8508 0
              CHANNELS 3 Zrotation Xrotation Yrotation
              End Site
              {
                OFFSET -0.0282102 7.19214 -0.829004
              }
            }
          }
        }
      }
    }
  }
}
MOTION
Frames: 9
Frame Time: 0.00208333
50.6705 121.755 5.81847 4.89332 11.0721 0.045623 0.464914 -2.79493 0.251225 0.937778 -1.5853 0.464872 0.932092 0.0596181 0.449154 -23.5694 3.49623 0.65151 18.2541 0.23115 -3.04423 26.7358 -12.0573 -8.38859 106.384 5.91551 19.0413 -8.22185e-007 1.13276e-006 -1.95644e-006 4.95456 50.0996 -3.88957 -7.2184e-006 2.55257e-006 -3 8.02912 -4.95144 0.697666 -35.824 -13.9129 9.91707 -81.8273 8.01936 4.05068 -1.94648e-006 -4.12548e-006 1.36552e-006 -7.47932 75.1834 7.63007 6.53004e-006 1.91437e-006 3.00212 -8.02939 -4.95142 -0.697645 166.559 24.6807 6.91602 180 7.01547e-015 178.922 179.732 29.4677 178.968 1.58815e-006 4.10178e-006 0.338697 -17.5019 66.5008 18.3774 8.13648 25.2327 -3.48773 -176.31 14.6513 -2.55133 4.54188e-006 -4.6773e-006 -1.03781 -4.91731 -23.5537 -0.242425 -3.25974e-006 3.15341e-006 -0.333896 17.9826 67.4369 -19.0901 -8.1365 25.2327 3.48774 
50.6979 121.956 5.82642 4.84153 11.0574 0.157722 0.468577 -2.7801 0.243603 0.944732 -1.55569 0.449199 0.939241 0.0892261 0.433369 -23.3037 3.76206 0.658057 17.94 -0.0195679 -3.01733 26.94 -12.0941 -8.42403 106.218 5.78388 19.4302 -8.22185e-007 1.13276e-006 -1.95644e-006 4.85393 49.8732 -3.82977 -7.2184e-006 2.55257e-006 -3 8.02912 -4.95144 0.697666 -35.9354 -13.8204 9.82008 -81.9578 7.7309 3.84063 -1.94648e-006 -4.12548e-006 1.36552e-006 -7.51906 75.0884 7.63835 6.53004e-006 1.91437e-006 3.00211 -8.02939 -4.95142 -0.697645 166.602 24.7498 6.92115 180 7.01547e-015 178.921 179.707 29.6247 178.968 1.58815e-006 4.10178e-006 0.342282 -17.508 66.5082 18.3818 8.13648 25.2327 -3.48773 -176.259 14.7354 -2.56643 4.54188e-006 -4.6773e-006 -1.0378 -4.88857 -23.5848 -0.235097 -3.25973e-006 3.15341e-006 -0.334117 17.9806 67.4333 -19.0857 -8.1365 25.2327 3.48774 
50.6723 122.102 5.81668 4.79188 11.0453 0.266986 0.472315 -2.7652 0.236784 0.951874 -1.52595 0.435126 0.946558 0.118967 0.419179 -23.0537 4.01249 0.663053 17.6413 -0.258601 -2.9927 27.1316 -12.1339 -8.4637 106.065 5.65206 19.8065 -8.22185e-007 1.13276e-006 -1.95644e-006 4.75533 49.6486 -3.77194 -7.2184e-006 2.55257e-006 -3 8.02912 -4.95144 0.697666 -36.0566 -13.7267 9.7216 -82.0832 7.44678 3.63046 -1.94648e-006 -4.12548e-006 1.36552e-006 -7.56206 74.9926 7.64932 6.53004e-006 1.91437e-006 3.00211 -8.02939 -4.95142 -0.697645 166.644 24.8198 6.92673 180 7.01546e-015 178.921 179.682 29.7702 178.968 1.58815e-006 4.10178e-006 0.345692 -17.514 66.5153 18.3861 8.13648 25.2327 -3.48773 -176.21 14.8212 -2.57733 4.54188e-006 -4.6773e-006 -1.03765 -4.8574 -23.6083 -0.227208 -3.25974e-006 3.15341e-006 -0.33421 17.9786 67.4297 -19.0812 -8.1365 25.2327 3.48774 
50.7101 122.297 5.83519 4.74469 11.0359 0.373055 0.47608 -2.75034 0.230709 0.959103 -1.49627 0.42254 0.953945 0.148651 0.406475 -22.8235 4.24592 0.66737 17.3634 -0.483269 -2.9701 27.3112 -12.1762 -8.50664 105.924 5.52002 20.1704 -8.22185e-007 1.13276e-006 -1.95644e-006 4.65882 49.4259 -3.71597 -7.2184e-006 2.55257e-006 -3 8.02912 -4.95144 0.697666 -36.1863 -13.6331 9.62302 -82.204 7.16795 3.4225 -1.94648e-006 -4.12548e-006 1.36552e-006 -7.61018 74.8966 7.66486 6.53004e-006 1.91437e-006 3.0021 -8.02939 -4.95142 -0.697645 166.683 24.8913 6.93247 180 7.01546e-015 178.92 179.657 29.9049 178.969 1.58815e-006 4.10178e-006 0.348925 -17.5199 66.5222 18.3901 8.13648 25.2327 -3.48773 -176.164 14.9094 -2.58416 4.54188e-006 -4.6773e-006 -1.03735 -4.82412 -23.6258 -0.218859 -3.25974e-006 3.15341e-006 -0.334206 17.9768 67.426 -19.0766 -8.1365 25.2327 3.48774 
50.7062 122.43 5.82387 4.70029 11.0295 0.475564 0.479824 -2.7356 0.22532 0.96632 -1.46683 0.411328 0.961304 0.178088 0.395146 -22.6171 4.46073 0.671881 17.112 -0.690889 -2.94931 27.48 -12.2202 -8.55191 105.797 5.38775 20.5219 -8.22185e-007 1.13276e-006 -1.95644e-006 4.56449 49.2053 -3.66173 -7.2184e-006 2.55257e-006 -3 8.02912 -4.95144 0.697666 -36.3235 -13.5408 9.52573 -82.3205 6.89537 3.21908 -1.94648e-006 -4.12548e-006 1.36552e-006 -7.66525 74.8011 7.68679 6.53004e-006 1.91437e-006 3.0021 -8.02939 -4.95142 -0.697645 166.72 24.9646 6.93808 180 7.01546e-015 178.919 179.632 30.0291 178.97 1.58815e-006 4.10178e-006 0.351977 -17.5255 66.5288 18.394 8.13648 25.2327 -3.48773 -176.121 15.0007 -2.58705 4.54188e-006 -4.6773e-006 -1.03691 -4.78909 -23.6391 -0.210151 -3.25974e-006 3.15341e-006 -0.334135 17.9751 67.4223 -19.0722 -8.1365 25.2327 3.48774 
50.7309 122.61 5.81736 4.659 11.0264 0.574153 0.483497 -2.72109 0.220559 0.973425 -1.43783 0.40138 0.968536 0.207089 0.385081 -22.4386 4.65531 0.677462 16.8926 -0.878779 -2.9301 27.6388 -12.2653 -8.59855 105.683 5.25523 20.8612 -8.22185e-007 1.13276e-006 -1.95644e-006 4.47242 48.9866 -3.60913 -7.2184e-006 2.55257e-006 -3 8.02912 -4.95144 0.697666 -36.4671 -13.4511 9.43113 -82.433 6.63001 3.02252 -1.94648e-006 -4.12548e-006 1.36552e-006 -7.72905 74.7067 7.71687 6.53004e-006 1.91437e-006 3.0021 -8.02939 -4.95142 -0.697645 166.754 25.0403 6.94326 180 7.01546e-015 178.919 179.608 30.1436 178.972 1.58815e-006 4.10178e-006 0.354844 -17.5309 66.5351 18.3977 8.13648 25.2327 -3.48773 -176.081 15.0955 -2.58611 4.54188e-006 -4.6773e-006 -1.03634 -4.75263 -23.6501 -0.201183 -3.25973e-006 3.15341e-006 -0.334031 17.9737 67.4188 -19.068 -8.1365 25.2327 3.48774 
50.6965 122.74 5.77095 4.62113 11.0268 0.66846 0.48705 -2.70689 0.216367 0.980321 -1.40946 0.392581 0.975544 0.235465 0.37617 -22.292 4.82805 0.684986 16.7107 -1.04426 -2.91226 27.7886 -12.3107 -8.64559 105.581 5.12245 21.1883 -8.22185e-007 1.13276e-006 -1.95644e-006 4.38271 48.7702 -3.55804 -7.2184e-006 2.55257e-006 -3 8.02912 -4.95144 0.697666 -36.6158 -13.3654 9.34058 -82.5417 6.37284 2.83516 -1.94648e-006 -4.12548e-006 1.36552e-006 -7.80331 74.6143 7.75685 6.53004e-006 1.91437e-006 3.00209 -8.02939 -4.95142 -0.697645 166.786 25.1189 6.9477 180 7.01546e-015 178.918 179.586 30.2488 178.973 1.58815e-006 4.10178e-006 0.357523 -17.5361 66.541 18.4013 8.13648 25.2327 -3.48773 -176.045 15.1947 -2.58147 4.54188e-006 -4.6773e-006 -1.03565 -4.71509 -23.6606 -0.192054 -3.25973e-006 3.15341e-006 -0.333923 17.9725 67.4155 -19.064 -8.1365 25.2327 3.48774 
50.7431 122.925 5.78035 4.58702 11.0309 0.758122 0.490435 -2.6931 0.212687 0.986907 -1.38189 0.384822 0.98223 0.263025 0.368302 -22.1813 4.97735 0.695328 16.572 -1.18465 -2.89555 27.9303 -12.3558 -8.69208 105.493 4.98937 21.5034 -8.22185e-007 1.13276e-006 -1.95644e-006 4.29543 48.5559 -3.50836 -7.2184e-006 2.55257e-006 -3 8.02912 -4.95144 0.697666 -36.7688 -13.285 9.25547 -82.6468 6.12483 2.65931 -1.94648e-006 -4.12548e-006 1.36552e-006 -7.88975 74.5243 7.80843 6.53004e-006 1.91437e-006 3.00209 -8.02939 -4.95142 -0.697645 166.815 25.2007 6.95111 180 7.01546e-015 178.918 179.567 30.3452 178.974 1.58815e-006 4.10178e-006 0.360011 -17.541 66.5467 18.4046 8.13648 25.2327 -3.48773 -176.012 15.2986 -2.57326 4.54188e-006 -4.6773e-006 -1.03484 -4.6768 -23.6723 -0.182865 -3.25974e-006 3.15341e-006 -0.333842 17.9717 67.4125 -19.0606 -8.1365 25.2327 3.48774 
50.7351 123.034 5.73854 4.55699 11.039 0.842778 0.493603 -2.67981 0.209459 0.993085 -1.35534 0.377988 0.988497 0.289579 0.361367 -22.1105 5.10159 0.709365 16.482 -1.29726 -2.87975 28.0649 -12.3999 -8.73707 105.417 4.85596 21.8065 -8.22185e-007 1.13276e-006 -1.95644e-006 4.21068 48.3439 -3.45999 -7.2184e-006 2.55257e-006 -3 8.02912 -4.95144 0.697666 -36.9248 -13.2112 9.17717 -82.7483 5.88696 2.49727 -1.94648e-006 -4.12548e-006 1.36552e-006 -7.99006 74.4376 7.87331 6.53004e-006 1.91437e-006 3.00209 -8.02939 -4.95142 -0.697645 166.841 25.2864 6.9532 180 7.01546e-015 178.918 179.551 30.4334 178.974 1.58815e-006 4.10178e-006 0.362304 -17.5455 66.552 18.4077 8.13648 25.2327 -3.48773 -175.984 15.4081 -2.5616 4.54188e-006 -4.6773e-006 -1.03392 -4.6381 -23.6871 -0.173713 -3.25974e-006 3.15341e-006 -0.333822 17.9712 67.41 -19.0576 -8.1365 25.2327 3.48774 
